<svg width="180" height="54" viewBox="0 0 180 54" fill="none" xmlns="http://www.w3.org/2000/svg">
  <rect x="2" y="2" width="176" height="50" rx="16" fill="#FFFDF8" stroke="#E7DDD0" stroke-width="2"/>
  <rect x="12" y="12" width="30" height="30" rx="10" fill="url(#paint0_linear)"/>
  <path d="M24 20.5C24 17.46 26.46 15 29.5 15H32C33.38 15 34.5 16.12 34.5 17.5V18.5C34.5 19.88 33.38 21 32 21H29.5C28.12 21 27 22.12 27 23.5V24.5C27 25.88 28.12 27 29.5 27H32C33.38 27 34.5 28.12 34.5 29.5V30.5C34.5 31.88 33.38 33 32 33H29.5C26.46 33 24 30.54 24 27.5V20.5Z" fill="white"/>
  <path d="M43 17H56C58.21 17 60 18.79 60 21V33" stroke="#B66B4A" stroke-width="2.5" stroke-linecap="round"/>
  <path d="M60 17H73C75.21 17 77 18.79 77 21V32.5" stroke="#5C7C5F" stroke-width="2.5" stroke-linecap="round"/>
  <path d="M43 30H70" stroke="#2F241D" stroke-width="2.5" stroke-linecap="round"/>
  <text x="86" y="24" fill="#2F241D" font-family="Inter, Arial, sans-serif" font-size="14" font-weight="700">CONY</text>
  <text x="86" y="40" fill="#796959" font-family="Inter, Arial, sans-serif" font-size="11">Interiores</text>
  <defs>
    <linearGradient id="paint0_linear" x1="12" y1="12" x2="42" y2="42" gradientUnits="userSpaceOnUse">
      <stop stop-color="#B66B4A"/>
      <stop offset="1" stop-color="#5C7C5F"/>
    </linearGradient>
  </defs>
</svg>
